<?xml version="1.0" encoding="UTF-8" standalone="no"?><!DOCTYPE svg PUBLIC "-//W3C//DTD SVG 1.1//EN" "http://www.w3.org/Graphics/SVG/1.1/DTD/svg11.dtd"><svg width="100%" height="100%" viewBox="0 0 1533 244" version="1.1" xmlns="http://www.w3.org/2000/svg" xmlns:xlink="http://www.w3.org/1999/xlink" xml:space="preserve" xmlns:serif="http://www.serif.com/" style="fill-rule:evenodd;clip-rule:evenodd;stroke-linecap:round;stroke-linejoin:round;stroke-miterlimit:1.5;"><g><path d="M1423.45,33.924l97.895,92.79l-97.895,92.789" style="fill:none;stroke:#fff;stroke-width:23px;"/><path d="M109.395,219.503l-97.895,-92.789l97.895,-92.79" style="fill:none;stroke:#fff;stroke-width:23px;"/><g transform="matrix(20.0284,0,0,20.0284,-14016.5,-5051.4)"><path d="M713.543,260.774l0.099,0c0.211,0 0.369,0.054 0.475,0.161c0.105,0.108 0.158,0.265 0.158,0.472c0,0.231 -0.056,0.397 -0.167,0.498c-0.111,0.102 -0.3,0.152 -0.566,0.152l-0.896,0c-0.113,0 -0.2,-0.022 -0.261,-0.067c-0.06,-0.045 -0.091,-0.106 -0.091,-0.184l0,-0.411c-0.191,0.262 -0.437,0.462 -0.738,0.601c-0.301,0.139 -0.639,0.208 -1.014,0.208c-0.765,0 -1.406,-0.261 -1.921,-0.782c-0.516,-0.522 -0.774,-1.173 -0.774,-1.954c0,-0.813 0.261,-1.487 0.782,-2.022c0.522,-0.535 1.185,-0.803 1.99,-0.803c0.277,0 0.548,0.046 0.811,0.138c0.264,0.092 0.505,0.222 0.724,0.39l0,-1.483l-0.779,0c-0.27,0 -0.461,-0.051 -0.575,-0.155c-0.113,-0.103 -0.17,-0.268 -0.17,-0.495c0,-0.231 0.057,-0.397 0.17,-0.498c0.114,-0.102 0.305,-0.152 0.575,-0.152l1.822,0c0.133,0 0.223,0.027 0.272,0.082c0.049,0.054 0.073,0.156 0.073,0.304l0,6Zm-2.748,-2.883c-0.382,0 -0.7,0.144 -0.952,0.431c-0.252,0.287 -0.378,0.652 -0.378,1.093c0,0.453 0.125,0.823 0.375,1.11c0.25,0.287 0.569,0.431 0.955,0.431c0.387,0 0.707,-0.145 0.958,-0.434c0.252,-0.289 0.378,-0.658 0.378,-1.107c0,-0.438 -0.127,-0.801 -0.38,-1.09c-0.254,-0.289 -0.573,-0.434 -0.956,-0.434Z" style="fill:#34c85f;fill-rule:nonzero;"/><path d="M716.654,259.696c0.101,0.434 0.298,0.758 0.589,0.973c0.291,0.215 0.678,0.322 1.163,0.322c0.484,0 0.963,-0.118 1.435,-0.354c0.473,-0.237 0.758,-0.355 0.856,-0.355c0.144,0 0.262,0.054 0.354,0.161c0.092,0.108 0.138,0.245 0.138,0.413c0,0.368 -0.272,0.684 -0.814,0.95c-0.543,0.265 -1.215,0.398 -2.016,0.398c-0.945,0 -1.714,-0.266 -2.306,-0.797c-0.592,-0.531 -0.887,-1.215 -0.887,-2.051c0,-0.832 0.295,-1.513 0.887,-2.045c0.592,-0.531 1.361,-0.796 2.306,-0.796c0.844,0 1.543,0.249 2.098,0.747c0.554,0.498 0.832,1.108 0.832,1.831c0,0.23 -0.056,0.388 -0.167,0.474c-0.112,0.086 -0.341,0.129 -0.689,0.129l-3.779,0Zm3.158,-0.914c-0.066,-0.363 -0.237,-0.644 -0.513,-0.844c-0.275,-0.199 -0.633,-0.298 -1.075,-0.298c-0.426,0 -0.768,0.094 -1.028,0.284c-0.26,0.189 -0.441,0.475 -0.542,0.858l3.158,0Z" style="fill:#34c85f;fill-rule:nonzero;"/><path d="M724.418,257.927l1.054,2.496l1.108,-2.496l-0.094,0c-0.211,0 -0.372,-0.055 -0.484,-0.164c-0.111,-0.11 -0.167,-0.27 -0.167,-0.481c0,-0.23 0.056,-0.394 0.167,-0.492c0.112,-0.098 0.304,-0.147 0.578,-0.147l1.377,0c0.273,0 0.465,0.05 0.577,0.15c0.111,0.099 0.167,0.263 0.167,0.489c0,0.211 -0.055,0.371 -0.164,0.481c-0.11,0.109 -0.27,0.164 -0.481,0.164l-0.099,0l-1.741,3.697c-0.129,0.266 -0.245,0.429 -0.348,0.489c-0.104,0.061 -0.263,0.091 -0.478,0.091c-0.39,0 -0.654,-0.164 -0.791,-0.492c-0.015,-0.039 -0.027,-0.069 -0.035,-0.088l-1.635,-3.697l-0.094,0c-0.21,0 -0.372,-0.055 -0.483,-0.164c-0.111,-0.11 -0.167,-0.27 -0.167,-0.481c0,-0.23 0.057,-0.394 0.17,-0.492c0.113,-0.098 0.305,-0.147 0.574,-0.147l1.489,0c0.269,0 0.46,0.05 0.574,0.15c0.113,0.099 0.17,0.263 0.17,0.489c0,0.211 -0.056,0.371 -0.167,0.481c-0.112,0.109 -0.271,0.164 -0.478,0.164l-0.099,0Z" style="fill:#34c85f;fill-rule:nonzero;"/><path d="M731.056,259.696c0.102,0.434 0.298,0.758 0.589,0.973c0.291,0.215 0.679,0.322 1.163,0.322c0.484,0 0.963,-0.118 1.436,-0.354c0.472,-0.237 0.757,-0.355 0.855,-0.355c0.145,0 0.263,0.054 0.355,0.161c0.091,0.108 0.137,0.245 0.137,0.413c0,0.368 -0.271,0.684 -0.814,0.95c-0.543,0.265 -1.215,0.398 -2.016,0.398c-0.945,0 -1.714,-0.266 -2.305,-0.797c-0.592,-0.531 -0.888,-1.215 -0.888,-2.051c0,-0.832 0.296,-1.513 0.888,-2.045c0.591,-0.531 1.36,-0.796 2.305,-0.796c0.844,0 1.543,0.249 2.098,0.747c0.555,0.498 0.832,1.108 0.832,1.831c0,0.23 -0.056,0.388 -0.167,0.474c-0.111,0.086 -0.341,0.129 -0.689,0.129l-3.779,0Zm3.158,-0.914c-0.066,-0.363 -0.237,-0.644 -0.512,-0.844c-0.276,-0.199 -0.634,-0.298 -1.076,-0.298c-0.425,0 -0.768,0.094 -1.028,0.284c-0.26,0.189 -0.44,0.475 -0.542,0.858l3.158,0Z" style="fill:#fff;fill-rule:nonzero;"/><path d="M740.572,260.774l1.26,0c0.269,0 0.459,0.049 0.568,0.147c0.109,0.097 0.164,0.26 0.164,0.486c0,0.231 -0.056,0.397 -0.167,0.498c-0.111,0.102 -0.3,0.152 -0.565,0.152l-3.973,0c-0.262,0 -0.448,-0.05 -0.56,-0.152c-0.111,-0.101 -0.167,-0.267 -0.167,-0.498c0,-0.23 0.054,-0.393 0.161,-0.489c0.108,-0.096 0.296,-0.144 0.566,-0.144l1.26,0l0,-5.086l-0.645,0c-0.265,0 -0.456,-0.051 -0.571,-0.155c-0.115,-0.103 -0.173,-0.268 -0.173,-0.495c0,-0.231 0.057,-0.397 0.17,-0.498c0.113,-0.102 0.305,-0.152 0.574,-0.152l1.752,0c0.109,0 0.194,0.022 0.255,0.067c0.061,0.045 0.091,0.106 0.091,0.185l0,6.134Z" style="fill:#fff;fill-rule:nonzero;"/><path d="M747.052,257.751c-0.457,0 -0.833,0.149 -1.128,0.448c-0.295,0.299 -0.442,0.681 -0.442,1.146c0,0.468 0.147,0.856 0.442,1.163c0.295,0.306 0.671,0.46 1.128,0.46c0.457,0 0.834,-0.154 1.131,-0.46c0.297,-0.307 0.445,-0.695 0.445,-1.163c0,-0.465 -0.147,-0.847 -0.442,-1.146c-0.295,-0.299 -0.673,-0.448 -1.134,-0.448Zm0,-1.236c0.949,0 1.719,0.265 2.309,0.796c0.59,0.532 0.885,1.213 0.885,2.045c0,0.836 -0.295,1.52 -0.885,2.051c-0.59,0.531 -1.36,0.797 -2.309,0.797c-0.945,0 -1.713,-0.266 -2.302,-0.797c-0.59,-0.531 -0.885,-1.215 -0.885,-2.051c0,-0.832 0.296,-1.513 0.887,-2.045c0.592,-0.531 1.359,-0.796 2.3,-0.796Z" style="fill:#fff;fill-rule:nonzero;"/><path d="M753.14,261.507l0,1.593l0.744,0c0.266,0 0.456,0.051 0.572,0.153c0.115,0.101 0.172,0.267 0.172,0.498c0,0.226 -0.056,0.389 -0.169,0.486c-0.114,0.098 -0.305,0.147 -0.575,0.147l-2.484,0c-0.27,0 -0.459,-0.048 -0.568,-0.144c-0.11,-0.096 -0.164,-0.259 -0.164,-0.489c0,-0.231 0.055,-0.397 0.166,-0.498c0.112,-0.102 0.3,-0.153 0.566,-0.153l0.346,0l0,-5.173l-0.094,0c-0.207,0 -0.365,-0.055 -0.475,-0.164c-0.109,-0.11 -0.164,-0.27 -0.164,-0.481c0,-0.23 0.055,-0.394 0.164,-0.492c0.11,-0.098 0.299,-0.147 0.569,-0.147l0.902,0c0.113,0 0.197,0.021 0.252,0.062c0.055,0.041 0.082,0.101 0.082,0.179l0,0.422c0.199,-0.266 0.44,-0.466 0.724,-0.601c0.283,-0.135 0.602,-0.202 0.958,-0.202c0.8,0 1.464,0.256 1.992,0.767c0.527,0.512 0.791,1.157 0.791,1.934c0,0.812 -0.256,1.485 -0.768,2.019c-0.511,0.533 -1.156,0.799 -1.933,0.799c-0.317,0 -0.613,-0.044 -0.888,-0.131c-0.275,-0.088 -0.515,-0.216 -0.718,-0.384Zm1.354,-3.756c-0.387,0 -0.705,0.142 -0.955,0.428c-0.25,0.285 -0.375,0.65 -0.375,1.095c0,0.446 0.125,0.811 0.375,1.096c0.25,0.285 0.568,0.428 0.955,0.428c0.386,0 0.706,-0.144 0.958,-0.431c0.252,-0.287 0.378,-0.651 0.378,-1.093c0,-0.445 -0.125,-0.81 -0.375,-1.095c-0.25,-0.286 -0.571,-0.428 -0.961,-0.428Z" style="fill:#fff;fill-rule:nonzero;"/><path d="M761.455,259.936c0.367,0 0.663,0.102 0.887,0.305c0.225,0.203 0.337,0.469 0.337,0.797c0,0.324 -0.112,0.589 -0.337,0.794c-0.224,0.205 -0.52,0.308 -0.887,0.308c-0.36,0 -0.653,-0.103 -0.879,-0.308c-0.227,-0.205 -0.34,-0.47 -0.34,-0.794c0,-0.324 0.113,-0.589 0.34,-0.794c0.226,-0.205 0.519,-0.308 0.879,-0.308Z" style="fill:#fff;fill-rule:nonzero;"/></g><path d="M1380.12,11.5c0,0 -66.566,197.622 -67.671,208.003" style="fill:none;stroke:#fff;stroke-width:23px;"/></g></svg>