<svg id="Layer_2" data-name="Layer 2" xmlns="http://www.w3.org/2000/svg" viewBox="0 0 477.66 396.5"><defs><style>.cls-1{fill:#f79f32;}.cls-2{fill:#8b5d21;}.cls-3{fill:#c58029;}.cls-4{fill:#313132;}.cls-5{fill:#39393b;}.cls-6{fill:#fff;}.cls-7{fill:none;stroke:#000;stroke-miterlimit:10;}.cls-8{fill:#323233;}.cls-9{fill:#3d9dc6;}</style></defs><title>hubot</title><path class="cls-1" d="M464.46,170.5s-16.09,11-16.09,28-.5,147-.5,155-3.5,13-9,13H307.69l-5.36-23.21H211l-6.73,29.17H71.5c-5.5,0-9-5-9-13s-.5-138-.5-155-16.13-28-16.13-28C86.38,98.8,167.44,47.33,256,47.33,342.28,47.33,422.37,96.18,464.46,170.5ZM425,261.5v-63a28,28,0,0,0-28-28H118.5a28,28,0,0,0-28,28v63a28,28,0,0,0,28,28H397A28,28,0,0,0,425,261.5ZM164.12,99.19c14-8.19,8-14.11-12.12-6.19-35,13.75-66.75,36.69-82.4,78.25-6.26,16.63,3.15,15.94,9.15,7.69C104.53,147.79,132.5,119.5,164.12,99.19Z" transform="translate(-18.17 -46.83)"/><path class="cls-2" d="M495.33,428c0,5.74-32.36,8-84.34,8.84-15.53-12.36-78.49-14.9-155-14.9-80.65,0-146.24,2.82-157.1,17-49.68.11-80.2-1.84-80.23-10.94v0c0-16,103.44-18.65,238.33-18.65S495.33,409.33,495.33,428Z" transform="translate(-18.17 -46.83)"/><path class="cls-3" d="M495.33,288V428c0-18.67-103.39-18.67-238.33-18.67S18.67,412,18.67,428V288h.06A239.86,239.86,0,0,1,45.87,176.46S62,187.5,62,204.5s.5,147,.5,155,3.5,13,9,13H204.27L201,386.67H312.33l-4.64-20.13H438.87c5.5,0,9-5,9-13s.5-138,.5-155,16.09-28,16.09-28A237.35,237.35,0,0,1,495.33,288Z" transform="translate(-18.17 -46.83)"/><rect class="cls-4" x="72.33" y="123.67" width="334.5" height="119" rx="28" ry="28"/><path class="cls-4" d="M411,436.84c2.41,1.92,3.68,4.07,3.68,6.49H97.33a7.13,7.13,0,0,1,1.57-4.39c10.86-14.18,76.45-17,157.1-17C332.5,421.94,395.46,424.48,411,436.84Z" transform="translate(-18.17 -46.83)"/><polygon class="cls-5" points="289.52 319.71 294.16 339.84 182.83 339.84 186.1 325.67 192.83 296.5 284.16 296.5 289.52 319.71"/><path class="cls-6" d="M152,93c20.16-7.92,26.17-2,12.12,6.19-31.62,20.31-59.59,48.6-85.37,79.75-6,8.25-15.41,8.94-9.15-7.69C85.25,129.69,117,106.75,152,93Z" transform="translate(-18.17 -46.83)"/><path class="cls-7" d="M18.67,428c0-16,103.44-18.65,238.33-18.65s238.33,0,238.33,18.67c0,5.74-32.36,8-84.34,8.84" transform="translate(-18.17 -46.83)"/><path class="cls-7" d="M98.9,438.94c-49.68.11-80.2-1.84-80.23-10.94" transform="translate(-18.17 -46.83)"/><path class="cls-7" d="M495.33,428V288a237.35,237.35,0,0,0-30.87-117.5C422.37,96.18,342.28,47.33,256,47.33c-88.56,0-169.62,51.47-210.13,129.13A239.86,239.86,0,0,0,18.73,288h-.06V428" transform="translate(-18.17 -46.83)"/><path class="cls-7" d="M45.87,176.46S62,187.5,62,204.5s.5,147,.5,155,3.5,13,9,13H204.27" transform="translate(-18.17 -46.83)"/><path class="cls-7" d="M464.46,170.5s-16.09,11-16.09,28-.5,147-.5,155-3.5,13-9,13H307.69" transform="translate(-18.17 -46.83)"/><polygon class="cls-8" points="185.9 339.91 182.83 339.84 183.56 336.65 232.67 296.5 238.5 296.5 185.9 339.91"/><polygon class="cls-8" points="185.9 326.53 187.29 320.53 216.67 296.5 222.96 296.5 185.9 326.53"/><polygon class="cls-8" points="188.98 313.2 190.36 307.2 203.45 296.5 209.77 296.5 188.98 313.2"/><polygon class="cls-8" points="201.24 339.91 195.08 339.91 248.01 296.5 253.98 296.5 201.24 339.91"/><polygon class="cls-8" points="218.97 339.84 213.02 339.84 265.67 296.5 271.64 296.5 218.97 339.84"/><polygon class="cls-8" points="236.21 339.84 230.24 339.84 282.89 296.5 284.16 296.5 284.96 299.97 236.21 339.84"/><polygon class="cls-8" points="254.77 339.84 248.39 339.84 286.91 308.39 287.91 312.74 254.77 339.84"/><polygon class="cls-8" points="269.64 339.8 264.02 339.84 289.4 319.18 290.41 323.56 269.64 339.8"/><polygon class="cls-8" points="287.25 339.95 281.41 339.91 292.08 330.83 293.09 335.18 287.25 339.95"/><polygon class="cls-9" points="301.6 217.47 267.36 166.65 233.07 196.35 204.95 167 171.64 215.81 136.48 173.41 114.46 187.17 72.33 187.17 72.33 179.17 112.17 179.17 138.18 162.93 171.02 202.53 203.9 154.34 233.59 185.32 268.94 154.69 300.06 200.87 327.89 136.41 369.39 174.67 406.83 174.67 406.83 182.67 366.27 182.67 330.77 149.94 301.6 217.47"/></svg>